<svg width="53" height="48" viewBox="0 0 53 48" fill="none" xmlns="http://www.w3.org/2000/svg">
<g clip-path="url(#clip0_18_2689)">
<path d="M15.7474 37.9304C18.1228 37.9304 20.0484 36.1484 20.0484 33.9503C20.0484 31.7521 18.1228 29.9702 15.7474 29.9702C13.3719 29.9702 11.4463 31.7521 11.4463 33.9503C11.4463 36.1484 13.3719 37.9304 15.7474 37.9304Z" stroke="#FAFAFA" stroke-width="2" stroke-linecap="round" stroke-linejoin="round"/>
<path d="M37.2527 37.9304C39.6282 37.9304 41.5538 36.1484 41.5538 33.9503C41.5538 31.7521 39.6282 29.9702 37.2527 29.9702C34.8773 29.9702 32.9517 31.7521 32.9517 33.9503C32.9517 36.1484 34.8773 37.9304 37.2527 37.9304Z" stroke="#FAFAFA" stroke-width="2" stroke-linecap="round" stroke-linejoin="round"/>
<path d="M11.4462 33.9504H9.14517C8.0406 33.9504 7.14517 33.055 7.14517 31.9504V25.9902M4.99463 10.0698H26.6505C27.7551 10.0698 28.6505 10.9653 28.6505 12.0698V33.9504M20.0484 33.9504H32.9516M41.5538 33.9504H43.8548C44.9594 33.9504 45.8548 33.055 45.8548 31.9504V22.0101M45.8548 22.0101H28.6505M45.8548 22.0101L39.9945 12.9718C39.6258 12.4031 38.9941 12.0599 38.3164 12.0599H28.6505" stroke="#FAFAFA" stroke-width="2" stroke-linecap="round" stroke-linejoin="round"/>
<path d="M11.0161 33.5522H8.71499C7.61042 33.5522 6.71499 32.6568 6.71499 31.5522V25.592M4.56445 9.67163H26.2204C27.3249 9.67163 28.2204 10.5671 28.2204 11.6716V33.5522M20.0483 33.5522H32.5214M41.9838 33.5522H43.4247C44.5292 33.5522 45.4247 32.6568 45.4247 31.5522V21.6119M45.4247 21.6119H28.2204M45.4247 21.6119L39.5643 12.5736C39.1956 12.0049 38.564 11.6617 37.8862 11.6617H28.2204" stroke="#FAFAFA" stroke-width="2" stroke-linecap="round" stroke-linejoin="round"/>
<path d="M7.14526 14.2307H15.7474" stroke="#FAFAFA" stroke-width="2" stroke-linecap="round" stroke-linejoin="round"/>
<path d="M3.03955 18.5726H11.6417" stroke="#FAFAFA" stroke-width="2" stroke-linecap="round" stroke-linejoin="round"/>
<path d="M7.14526 22.9145H15.7474" stroke="#FAFAFA" stroke-width="2" stroke-linecap="round" stroke-linejoin="round"/>
</g>
<defs>
<clipPath id="clip0_18_2689">
<rect width="51.6129" height="47.7612" fill="white" transform="translate(0.693604 0.119385)"/>
</clipPath>
</defs>
</svg>
