<svg width="40" height="41" viewBox="0 0 40 41" fill="none" xmlns="http://www.w3.org/2000/svg">
<path d="M8.09894 31.0994L8.09871 31.0992C7.22598 30.4485 6.42537 29.4207 5.84258 28.2591C5.25973 27.0974 4.9165 25.8452 4.9165 24.7667V12.3667C4.9165 10.0075 6.67133 7.46189 8.891 6.63525L8.89196 6.63489L17.2082 3.51838C17.2083 3.51835 17.2084 3.51832 17.2085 3.51829C17.9619 3.23673 18.9614 3.08752 19.9832 3.08752C21.0049 3.08752 22.0044 3.23673 22.7579 3.51829C22.758 3.51832 22.758 3.51835 22.7581 3.51838L31.0744 6.6349L31.0753 6.63525C33.295 7.46189 35.0498 10.0075 35.0498 12.3667V24.75C35.0498 25.8372 34.7064 27.0893 34.1239 28.2484C33.5414 29.4074 32.7409 30.4314 31.8676 31.0825L31.8674 31.0827L24.7007 36.4327L24.7007 36.4326L24.6945 36.4374C23.4118 37.4265 21.7239 37.9334 19.9998 37.9334C18.2772 37.9334 16.585 37.4271 15.2647 36.4487C15.2645 36.4486 15.2644 36.4484 15.2642 36.4483L8.09894 31.0994ZM17.7417 4.93157L17.741 4.93182L9.42438 8.04849L9.42367 8.04875C8.59609 8.36031 7.85486 9.0226 7.32394 9.79073C6.79285 10.5591 6.43317 11.4899 6.43317 12.3834V24.7667C6.43317 25.6612 6.74375 26.6893 7.20075 27.6011C7.65764 28.5127 8.29312 29.3723 9.00069 29.9007L9.00073 29.9007L16.1671 35.2504C17.2291 36.0446 18.6281 36.425 20.0019 36.425C21.3759 36.425 22.7781 36.0446 23.8476 35.2517L23.8489 35.2507L31.0156 29.9007L31.0165 29.9C31.7313 29.364 32.3667 28.5051 32.8221 27.5945C33.2774 26.6838 33.5832 25.6601 33.5832 24.7667V12.3667C33.5832 11.4805 33.2227 10.5539 32.6924 9.78657C32.1619 9.01902 31.4221 8.35409 30.5975 8.03392L30.5975 8.03389L30.592 8.03182L22.2753 4.91515L22.2753 4.91507L22.2662 4.91186C21.6281 4.68663 20.8 4.58326 20.0006 4.58544C19.2019 4.58762 18.375 4.69526 17.7417 4.93157Z" fill="#FAFAFA" stroke="#FAFAFA"/>
<path d="M17.413 21.5535L17.7666 21.9071L18.1201 21.5535L24.4035 15.2702C24.6915 14.9821 25.1749 14.9821 25.463 15.2702C25.7511 15.5583 25.7511 16.0417 25.463 16.3298L18.2963 23.4964C18.1451 23.6477 17.9578 23.7166 17.7666 23.7166C17.5754 23.7166 17.3881 23.6477 17.2368 23.4964L14.5535 20.8131C14.2654 20.525 14.2654 20.0416 14.5535 19.7535C14.8415 19.4655 15.3249 19.4655 15.613 19.7535L17.413 21.5535Z" fill="#FAFAFA" stroke="#FAFAFA"/>
</svg>
