<svg width="25" height="25" viewBox="0 0 25 25" fill="none" xmlns="http://www.w3.org/2000/svg">
<path fill-rule="evenodd" clip-rule="evenodd" d="M8 7V6.1C8 5.14522 8.36875 4.22955 9.02513 3.55442C9.6815 2.87928 10.5717 2.5 11.5 2.5C12.4283 2.5 13.3185 2.87928 13.9749 3.55442C14.6313 4.22955 15 5.14522 15 6.1V7H17.625C18.108 7 18.5 7.4041 18.5 7.9063V18.7072C18.5 19.6972 17.7169 20.5 16.7553 20.5H6.24475C5.78232 20.5 5.3388 20.3112 5.01164 19.975C4.68449 19.6388 4.50046 19.1828 4.5 18.7072V7.9072C4.5 7.405 4.88938 7 5.375 7H8ZM9.05 7H13.95V6.1C13.95 5.43165 13.6919 4.79068 13.2324 4.31809C12.7729 3.8455 12.1498 3.58 11.5 3.58C10.8502 3.58 10.2271 3.8455 9.76759 4.31809C9.30812 4.79068 9.05 5.43165 9.05 6.1V7ZM8 8.08H5.55V18.7072C5.55 19.0996 5.8615 19.42 6.24475 19.42H16.7553C16.9392 19.42 17.1157 19.345 17.2459 19.2113C17.3761 19.0777 17.4495 18.8964 17.45 18.7072V8.08H15V10.6H13.95V8.08H9.05V10.6H8V8.08Z" fill="white"/>
</svg>
